HIERARCHY
ROOT Hips
{
  OFFSET 5.72205e-005 65.662 3.42586
  CHANNELS 6 Xposition Yposition Zposition Zrotation Xrotation Yrotation
  JOINT Chest
  {
    OFFSET 0 8.7983 -4.7612
    CHANNELS 6 Xposition Yposition Zposition Zrotation Xrotation Yrotation
    JOINT Chest2
    {
      OFFSET 0 8.0291 0.4195
      CHANNELS 6 Xposition Yposition Zposition Zrotation Xrotation Yrotation
      JOINT Chest3
      {
        OFFSET 0 9.9351 -2.2114
        CHANNELS 6 Xposition Yposition Zposition Zrotation Xrotation Yrotation
        JOINT Neck
        {
          OFFSET 0 22.3885 -0.4656
          CHANNELS 6 Xposition Yposition Zposition Zrotation Xrotation Yrotation
          JOINT Head
          {
            OFFSET -0.0001 12.643 3.4389
            CHANNELS 6 Xposition Yposition Zposition Zrotation Xrotation Yrotation
            End Site
            {
              OFFSET 0.0001 17.6655 0.5274
            }
          }
        }
        JOINT LeftCollar
        {
          OFFSET 2.2603 21.606 7.4023
          CHANNELS 6 Xposition Yposition Zposition Zrotation Xrotation Yrotation
          JOINT LeftShoulder
          {
            OFFSET 13.5163 -1.1332 -5.0146
            CHANNELS 6 Xposition Yposition Zposition Zrotation Xrotation Yrotation
            JOINT LeftElbow
            {
              OFFSET -0.0995 -28.05 -0.2431
              CHANNELS 6 Xposition Yposition Zposition Zrotation Xrotation Yrotation
              JOINT LeftWrist
              {
                OFFSET 0.0679 -23.3996 -0.1402
                CHANNELS 6 Xposition Yposition Zposition Zrotation Xrotation Yrotation
                JOINT LeftFinger1
                {
                  OFFSET 0.7932 -9.069 2.5189
                  CHANNELS 6 Xposition Yposition Zposition Zrotation Xrotation Yrotation
                  JOINT LeftFinger11
                  {
                    OFFSET -0.8272 -3.3923 0.5977
                    CHANNELS 6 Xposition Yposition Zposition Zrotation Xrotation Yrotation
                    JOINT LeftFinger12
                    {
                      OFFSET -0.5649 -2.3158 0.4082
                      CHANNELS 6 Xposition Yposition Zposition Zrotation Xrotation Yrotation
                      End Site
                      {
                        OFFSET -0.4919 -1.6479 0.2673
                      }
                    }
                  }
                }
                JOINT LeftFinger2
                {
                  OFFSET 0.9159 -9.2044 0.2193
                  CHANNELS 6 Xposition Yposition Zposition Zrotation Xrotation Yrotation
                  JOINT LeftFinger21
                  {
                    OFFSET 0.0117 -4.1944 -0.0248
                    CHANNELS 6 Xposition Yposition Zposition Zrotation Xrotation Yrotation
                    JOINT LeftFinger22
                    {
                      OFFSET 0.0071 -2.3249 -0.0142
                      CHANNELS 6 Xposition Yposition Zposition Zrotation Xrotation Yrotation
                      End Site
                      {
                        OFFSET -0.1475 -2.0882 0.0028
                      }
                    }
                  }
                }
                JOINT LeftFinger3
                {
                  OFFSET 0.6113 -8.7231 -2.0637
                  CHANNELS 6 Xposition Yposition Zposition Zrotation Xrotation Yrotation
                  JOINT LeftFinger31
                  {
                    OFFSET -0.1927 -3.8059 -0.2383
                    CHANNELS 6 Xposition Yposition Zposition Zrotation Xrotation Yrotation
                    JOINT LeftFinger32
                    {
                      OFFSET -0.1091 -2.1688 -0.1362
                      CHANNELS 6 Xposition Yposition Zposition Zrotation Xrotation Yrotation
                      End Site
                      {
                        OFFSET -0.2358 -1.9176 -0.0906
                      }
                    }
                  }
                }
                JOINT LeftFinger4
                {
                  OFFSET -0.6151 -8.0947 -3.5641
                  CHANNELS 6 Xposition Yposition Zposition Zrotation Xrotation Yrotation
                  JOINT LeftFinger41
                  {
                    OFFSET -0.4882 -2.341 -0.6462
                    CHANNELS 6 Xposition Yposition Zposition Zrotation Xrotation Yrotation
                    JOINT LeftFinger42
                    {
                      OFFSET -0.3575 -1.7167 -0.4742
                      CHANNELS 6 Xposition Yposition Zposition Zrotation Xrotation Yrotation
                      End Site
                      {
                        OFFSET -0.4187 -1.5237 -0.3496
                      }
                    }
                  }
                }
                JOINT LeftFinger0
                {
                  OFFSET -1.42 -1.8761 1.4223
                  CHANNELS 6 Xposition Yposition Zposition Zrotation Xrotation Yrotation
                  JOINT LeftFinger01
                  {
                    OFFSET -1.1471 -3.4929 2.6334
                    CHANNELS 6 Xposition Yposition Zposition Zrotation Xrotation Yrotation
                    JOINT LeftFinger02
                    {
                      OFFSET -0.823 -2.3 1.6571
                      CHANNELS 6 Xposition Yposition Zposition Zrotation Xrotation Yrotation
                      End Site
                      {
                        OFFSET -0.5822 -1.6914 1.1582
                      }
                    }
                  }
                }
              }
            }
          }
        }
        JOINT RightCollar
        {
          OFFSET -2.2603 21.606 7.4023
          CHANNELS 6 Xposition Yposition Zposition Zrotation Xrotation Yrotation
          JOINT RightShoulder
          {
            OFFSET -13.5187 -1.1334 -5.0155
            CHANNELS 6 Xposition Yposition Zposition Zrotation Xrotation Yrotation
            JOINT RightElbow
            {
              OFFSET 0.0994 -28.0499 -0.2431
              CHANNELS 6 Xposition Yposition Zposition Zrotation Xrotation Yrotation
              JOINT RightWrist
              {
                OFFSET -0.0679 -23.3996 -0.1402
                CHANNELS 6 Xposition Yposition Zposition Zrotation Xrotation Yrotation
                JOINT RightFinger1
                {
                  OFFSET -0.7932 -9.0691 2.5189
                  CHANNELS 6 Xposition Yposition Zposition Zrotation Xrotation Yrotation
                  JOINT RightFinger11
                  {
                    OFFSET 0.8272 -3.3923 0.5977
                    CHANNELS 6 Xposition Yposition Zposition Zrotation Xrotation Yrotation
                    JOINT RightFinger12
                    {
                      OFFSET 0.565 -2.3158 0.4082
                      CHANNELS 6 Xposition Yposition Zposition Zrotation Xrotation Yrotation
                      End Site
                      {
                        OFFSET 0.4919 -1.6479 0.2673
                      }
                    }
                  }
                }
                JOINT RightFinger2
                {
                  OFFSET -0.916 -9.2044 0.2193
                  CHANNELS 6 Xposition Yposition Zposition Zrotation Xrotation Yrotation
                  JOINT RightFinger21
                  {
                    OFFSET -0.0117 -4.1944 -0.0248
                    CHANNELS 6 Xposition Yposition Zposition Zrotation Xrotation Yrotation
                    JOINT RightFinger22
                    {
                      OFFSET -0.0071 -2.3249 -0.0142
                      CHANNELS 6 Xposition Yposition Zposition Zrotation Xrotation Yrotation
                      End Site
                      {
                        OFFSET 0.1475 -2.0882 0.0028
                      }
                    }
                  }
                }
                JOINT RightFinger3
                {
                  OFFSET -0.6113 -8.7231 -2.0637
                  CHANNELS 6 Xposition Yposition Zposition Zrotation Xrotation Yrotation
                  JOINT RightFinger31
                  {
                    OFFSET 0.1927 -3.8059 -0.2383
                    CHANNELS 6 Xposition Yposition Zposition Zrotation Xrotation Yrotation
                    JOINT RightFinger32
                    {
                      OFFSET 0.1091 -2.1688 -0.1362
                      CHANNELS 6 Xposition Yposition Zposition Zrotation Xrotation Yrotation
                      End Site
                      {
                        OFFSET 0.2358 -1.9176 -0.0906
                      }
                    }
                  }
                }
                JOINT RightFinger4
                {
                  OFFSET 0.6151 -8.0947 -3.564
                  CHANNELS 6 Xposition Yposition Zposition Zrotation Xrotation Yrotation
                  JOINT RightFinger41
                  {
                    OFFSET 0.4882 -2.341 -0.6462
                    CHANNELS 6 Xposition Yposition Zposition Zrotation Xrotation Yrotation
                    JOINT RightFinger42
                    {
                      OFFSET 0.3574 -1.7166 -0.4742
                      CHANNELS 6 Xposition Yposition Zposition Zrotation Xrotation Yrotation
                      End Site
                      {
                        OFFSET 0.4187 -1.5237 -0.3496
                      }
                    }
                  }
                }
                JOINT RightFinger0
                {
                  OFFSET 1.4199 -1.8761 1.4221
                  CHANNELS 6 Xposition Yposition Zposition Zrotation Xrotation Yrotation
                  JOINT RightFinger01
                  {
                    OFFSET 1.1472 -3.4929 2.6336
                    CHANNELS 6 Xposition Yposition Zposition Zrotation Xrotation Yrotation
                    JOINT RightFinger02
                    {
                      OFFSET 0.8229 -2.3 1.6571
                      CHANNELS 6 Xposition Yposition Zposition Zrotation Xrotation Yrotation
                      End Site
                      {
                        OFFSET 0.5822 -1.6914 1.1582
                      }
                    }
                  }
                }
              }
            }
          }
        }
      }
    }
  }
  JOINT RightHip
  {
    OFFSET -9.412 3.9771 -0.7758
    CHANNELS 6 Xposition Yposition Zposition Zrotation Xrotation Yrotation
    JOINT RightKnee
    {
      OFFSET -0.7531 -40.938 0
      CHANNELS 6 Xposition Yposition Zposition Zrotation Xrotation Yrotation
      JOINT RightAnkle
      {
        OFFSET 0 -40.1986 0
        CHANNELS 6 Xposition Yposition Zposition Zrotation Xrotation Yrotation
        JOINT RightToe
        {
          OFFSET 0 -4.4182 9.239
          CHANNELS 6 Xposition Yposition Zposition Zrotation Xrotation Yrotation
          End Site
          {
            OFFSET 0 0 6.1981
          }
        }
      }
    }
  }
  JOINT LeftHip
  {
    OFFSET 9.4119 3.9773 -0.7758
    CHANNELS 6 Xposition Yposition Zposition Zrotation Xrotation Yrotation
    JOINT LeftKnee
    {
      OFFSET 0.7532 -40.9383 0
      CHANNELS 6 Xposition Yposition Zposition Zrotation Xrotation Yrotation
      JOINT LeftAnkle
      {
        OFFSET 0 -40.1986 0
        CHANNELS 6 Xposition Yposition Zposition Zrotation Xrotation Yrotation
        JOINT LeftToe
        {
          OFFSET 0 -4.4182 9.239
          CHANNELS 6 Xposition Yposition Zposition Zrotation Xrotation Yrotation
          End Site
          {
            OFFSET 0 0 6.1981
          }
        }
      }
    }
  }
}
MOTION
Frames:	4
Frame Time:	0.0333333
5.72205e-005 65.662 3.42586 0 0 -0 0 8.7983 -4.7612 0 0 -0 0 8.0291 0.4195 0 0 -0 0 9.9351 -2.2114 0 0 -0 0 22.3885 -0.4656 0 0 -0 -0.0001 12.643 3.4389 0 0 -0 2.2603 21.606 7.4023 0 0 -12.5014 13.5163 -1.1332 -5.0146 88.1196 14.2451 10.6914 -0.0995 -28.05 -0.2431 -0.00160068 -0.00239207 0.000740045 0.0679 -23.3996 -0.1402 -8.4365e-005 7.00714e-005 -9.52055e-007 0.7932 -9.069 2.5189 9.93923e-017 -1.98785e-016 -1.59028e-015 -0.8272 -3.3923 0.5977 9.93923e-017 -5.96354e-016 -1.59028e-015 -0.5649 -2.3158 0.4082 -9.93923e-017 -5.96354e-016 -1.59028e-015 0.9159 -9.2044 0.2193 9.93923e-017 -1.98785e-016 -1.59028e-015 0.0117 -4.1944 -0.0248 -0.0128176 0.00232552 8.52707e-005 0.0071 -2.3249 -0.0142 9.93923e-017 5.96354e-016 -0 0.6113 -8.7231 -2.0637 9.93923e-017 -1.98785e-016 -1.59028e-015 -0.1927 -3.8059 -0.2383 -0.0160551 0.00299681 0.000857156 -0.1091 -2.1688 -0.1362 -2.48481e-016 0 3.18055e-015 -0.6151 -8.0947 -3.5641 9.93923e-017 -1.98785e-016 -1.59028e-015 -0.4882 -2.341 -0.6462 -0.0125865 0.0031206 0.00282719 -0.3575 -1.7167 -0.4742 0 1.98785e-016 -0 -1.42 -1.8761 1.4223 9.93923e-017 -1.98785e-016 -1.59028e-015 -1.1471 -3.4929 2.6334 9.93923e-017 -5.96354e-016 -1.59028e-015 -0.823 -2.3 1.6571 -9.93923e-017 -5.96354e-016 -1.59028e-015 -2.2603 21.606 7.4023 -0.865644 0.16582 7.03859 -13.5187 -1.1334 -5.0155 -88.0329 10.2057 -10.5567 0.0994 -28.0499 -0.2431 0.0015593 -0.00248883 -0.000788628 -0.0679 -23.3996 -0.1402 7.87605e-005 4.10553e-005 1.24965e-005 -0.7932 -9.0691 2.5189 -3.97569e-016 -7.95139e-016 3.18055e-015 0.8272 -3.3923 0.5977 -1.98785e-016 -3.97569e-016 3.18055e-015 0.565 -2.3158 0.4082 -1.98785e-016 0 3.18055e-015 -0.916 -9.2044 0.2193 -3.97569e-016 -7.95139e-016 3.18055e-015 -0.0117 -4.1944 -0.0248 0.0129473 0.00231697 -8.70038e-005 -0.0071 -2.3249 -0.0142 9.93923e-017 -7.95139e-016 1.59028e-015 -0.6113 -8.7231 -2.0637 -3.97569e-016 -7.95139e-016 3.18055e-015 0.1927 -3.8059 -0.2383 0.0163314 0.00303369 -0.000872333 0.1091 -2.1688 -0.1362 3.97569e-016 7.95139e-016 -3.18055e-015 0.6151 -8.0947 -3.564 -3.97569e-016 -7.95139e-016 3.18055e-015 0.4882 -2.341 -0.6462 0.0145763 0.00367772 -0.00326275 0.3574 -1.7166 -0.4742 9.93923e-017 -3.97569e-016 -0 1.4199 -1.8761 1.4221 -3.97569e-016 -7.95139e-016 3.18055e-015 1.1472 -3.4929 2.6336 -1.98785e-016 -3.97569e-016 3.18055e-015 0.8229 -2.3 1.6571 -1.98785e-016 0 3.18055e-015 -9.412 3.9771 -0.7758 3.42482 1.32465 -0.0626183 -0.7531 -40.938 0 0.000117508 0.717283 0.000978199 0 -40.1986 0 -3.4257 -2.04197 -0.0604716 8.88178e-016 -4.4182 9.239 6.47761e-025 0 -0 9.4119 3.9773 -0.7758 -3.42483 1.34017 0.0627307 0.7532 -40.9383 -2.22045e-016 -0.000193936 0.682302 -0.0013703 -8.88179e-016 -40.1986 0 3.42574 -2.02253 0.0595886 -8.88178e-016 -4.4182 9.239 -8.45714e-024 0 -7.40531e-025 
0.938062 17.7339 -3.13399 -6.64905e-015 2.99942 180 1.11022e-016 8.7983 -4.7612 -0.308259 -3.65128 -0.546404 0 8.0291 0.4195 -0.653474 -7.29939 -1.11594 0 9.9351 -2.2114 -0.653475 -7.29941 -1.11594 0 22.3885 -0.4656 7.23833e-007 -0.379419 1.82406e-006 -0.0001 12.643 3.4389 -8.81833e-007 -9.12136 -6.59487e-007 2.2603 21.606 7.4023 -13.2739 -0.456465 -29.4856 13.5163 -1.1332 -5.0146 25.2986 -13.0643 105.463 -0.0995 -28.05 -0.2431 4.34638 -0.325892 -74.5214 0.0679 -23.3996 -0.1402 8.93452 32.6159 5.43437 0.7932 -9.069 2.5189 -1.22813e-007 -1.70938e-006 -8.26856e-007 -0.8272 -3.3923 0.5977 -1.22813e-007 8.88387e-007 -8.26856e-007 -0.5649 -2.3158 0.4082 -2.45625e-007 -1.64445e-006 -1.65371e-006 0.9159 -9.2044 0.2193 -1.22813e-007 -1.70938e-006 -8.26856e-007 0.0117 -4.1944 -0.0248 -0.0128285 0.00232637 8.43818e-005 0.0071 -2.3249 -0.0142 -2.45636e-007 -8.20978e-007 -1.65372e-006 0.6113 -8.7231 -2.0637 -1.22813e-007 -1.70938e-006 -8.26856e-007 -0.1927 -3.8059 -0.2383 -0.0160516 0.00299526 0.000855488 -0.1091 -2.1688 -0.1362 -2.45636e-007 -8.20974e-007 -1.65372e-006 -0.6151 -8.0947 -3.5641 -1.22813e-007 -1.70938e-006 -8.26856e-007 -0.4882 -2.341 -0.6462 -0.0126043 0.00312802 0.00282997 -0.3575 -1.7167 -0.4742 -7.95139e-016 -8.65921e-007 -1.59028e-015 -1.42 -1.8761 1.4223 -1.22813e-007 -1.70938e-006 -8.26856e-007 -1.1471 -3.4929 2.6334 -1.22813e-007 8.88387e-007 -8.26856e-007 -0.823 -2.3 1.6571 -2.45625e-007 -1.64445e-006 -1.65371e-006 -2.2603 21.606 7.4023 3.57309 -9.32524 -19.4286 -13.5187 -1.1334 -5.0155 -28.6477 26.4587 -103.516 0.0994 -28.0499 -0.2431 -0.0731378 0.43964 73.1171 -0.0679 -23.3996 -0.1402 -45.7116 -9.36247 6.00866 -0.7932 -9.0691 2.5189 -2.11868e-030 -9.54166e-015 -1.27222e-014 0.8272 -3.3923 0.5977 5.19568e-007 7.76121e-007 -1.37641e-007 0.565 -2.3158 0.4082 -1.02938e-006 1.73951e-006 1.0769e-006 -0.916 -9.2044 0.2193 -2.11868e-030 -9.54166e-015 -1.27222e-014 -0.0117 -4.1944 -0.0248 0.0129677 0.00232195 -8.54026e-005 -0.0071 -2.3249 -0.0142 -6.94049e-006 -1.46713e-006 3.50027e-006 -0.6113 -8.7231 -2.0637 -2.11868e-030 -9.54166e-015 -1.27222e-014 0.1927 -3.8059 -0.2383 0.0163495 0.00304241 -0.000869794 0.1091 -2.1688 -0.1362 -6.85897e-024 -6.17801e-008 -6.36111e-015 0.6151 -8.0947 -3.564 -2.11868e-030 -9.54166e-015 -1.27222e-014 0.4882 -2.341 -0.6462 0.0145705 0.00367685 -0.00325439 0.3574 -1.7166 -0.4742 3.18055e-015 1.61645e-006 -0 1.4199 -1.8761 1.4221 -2.11868e-030 -9.54166e-015 -1.27222e-014 1.1472 -3.4929 2.6336 5.19568e-007 7.76121e-007 -1.37641e-007 0.8229 -2.3 1.6571 -1.02938e-006 1.73951e-006 1.0769e-006 -9.412 3.9771 -0.7758 -34.9704 -12.7239 46.9471 -0.7531 -40.938 1.77636e-015 126.558 39.9987 -157.235 -4.44089e-016 -40.1986 -7.10543e-015 -14.6079 36.9185 61.9381 0 -4.4182 9.239 -8.13181e-022 -7.32448e-006 -6.36111e-015 9.4119 3.9773 -0.7758 36.9494 -13.0513 -47.6672 0.7532 -40.9383 3.55271e-015 -124.644 40.6077 156.032 -6.66134e-016 -40.1986 0 17.0115 37.4236 -64.775 0 -4.4182 9.239 8.82425e-006 3.58675e-007 1.50498e-007 
0.937644 17.4545 -2.96011 -6.64912e-015 2.99883 180 1.11022e-016 8.7983 -4.7612 -0.308259 -3.65127 -0.546403 0 8.0291 0.4195 -0.653474 -7.29939 -1.11594 0 9.9351 -2.2114 -0.653475 -7.29941 -1.11594 -2.22045e-016 22.3885 -0.4656 4.90969e-007 -0.511508 1.22804e-006 -0.0001 12.643 3.4389 4.77135e-007 -9.12134 2.44411e-007 2.2603 21.606 7.4023 -13.5531 -0.190517 -29.4329 13.5163 -1.1332 -5.0146 25.2986 -13.0643 105.463 -0.0995 -28.05 -0.2431 4.0439 -0.271248 -74.5412 0.0679 -23.3996 -0.1402 9.67631 31.24 5.3188 0.7932 -9.069 2.5189 8.82781e-032 1.59028e-015 -3.18055e-015 -0.8272 -3.3923 0.5977 6.88229e-007 1.5521e-006 -9.89707e-007 -0.5649 -2.3158 0.4082 1.42292e-007 1.70177e-006 8.23323e-007 0.9159 -9.2044 0.2193 8.82781e-032 1.59028e-015 -3.18055e-015 0.0117 -4.1944 -0.0248 -0.0128183 0.002323 8.36162e-005 0.0071 -2.3249 -0.0142 1.59028e-015 1.7274e-006 -0 0.6113 -8.7231 -2.0637 8.82781e-032 1.59028e-015 -3.18055e-015 -0.1927 -3.8059 -0.2383 -0.0160706 0.00300496 0.00085717 -0.1091 -2.1688 -0.1362 3.97569e-016 8.63701e-007 -1.59028e-015 -0.6151 -8.0947 -3.5641 8.82781e-032 1.59028e-015 -3.18055e-015 -0.4882 -2.341 -0.6462 -0.0125918 0.00312526 0.00282571 -0.3575 -1.7167 -0.4742 1.25741e-006 4.22806e-006 2.30362e-006 -1.42 -1.8761 1.4223 8.82781e-032 1.59028e-015 -3.18055e-015 -1.1471 -3.4929 2.6334 6.88229e-007 1.5521e-006 -9.89707e-007 -0.823 -2.3 1.6571 1.42292e-007 1.70177e-006 8.23323e-007 -2.2603 21.606 7.4023 2.57525 -9.04997 -19.0518 -13.5187 -1.1334 -5.0155 -28.1678 26.6805 -103.715 0.0994 -28.0499 -0.2431 -0.0787029 0.43938 73.2269 -0.0679 -23.3996 -0.1402 -45.7145 -9.34585 5.99212 -0.7932 -9.0691 2.5189 -6.36111e-015 0 -0 0.8272 -3.3923 0.5977 -1.76556e-031 3.18055e-015 3.18055e-015 0.565 -2.3158 0.4082 3.8322e-006 -1.44316e-006 6.8401e-006 -0.916 -9.2044 0.2193 -6.36111e-015 0 -0 -0.0117 -4.1944 -0.0248 0.0129741 0.00232558 -7.88662e-005 -0.0071 -2.3249 -0.0142 3.18055e-015 6.36111e-015 3.18055e-015 -0.6113 -8.7231 -2.0637 -6.36111e-015 0 -0 0.1927 -3.8059 -0.2383 0.0163322 0.00303159 -0.000863239 0.1091 -2.1688 -0.1362 -2.97931e-007 3.97094e-006 1.64605e-006 0.6151 -8.0947 -3.564 -6.36111e-015 0 -0 0.4882 -2.341 -0.6462 0.0145769 0.00368512 -0.00325114 0.3574 -1.7166 -0.4742 2.06646e-006 -1.03674e-005 -2.15769e-006 1.4199 -1.8761 1.4221 -6.36111e-015 0 -0 1.1472 -3.4929 2.6336 -1.76556e-031 3.18055e-015 3.18055e-015 0.8229 -2.3 1.6571 3.8322e-006 -1.44316e-006 6.8401e-006 -9.412 3.9771 -0.7758 -35.4705 -12.8509 46.8733 -0.7531 -40.938 3.55271e-015 127.089 39.8507 -157.557 -1.77636e-015 -40.1986 0 -14.8936 36.4829 62.3019 0 -4.4182 9.239 6.36111e-015 0 -0 9.4119 3.9773 -0.7758 37.4729 -13.1638 -47.5833 0.7532 -40.9383 5.32907e-015 -125.168 40.4718 156.352 1.55431e-015 -40.1986 0 17.3167 36.961 -65.1532 0 -4.4182 9.239 5.8482e-006 -3.53834e-006 -7.96267e-007 
0.937226 17.1752 -2.78628 -6.64912e-015 2.99883 180 0 8.7983 -4.7612 -0.308259 -3.65127 -0.546403 2.22045e-016 8.0291 0.4195 -0.653474 -7.29939 -1.11594 0 9.9351 -2.2114 -0.653475 -7.29941 -1.11594 0 22.3885 -0.4656 8.44239e-007 -0.643623 1.96756e-006 -0.0001 12.643 3.4389 -2.83338e-007 -9.12134 -8.25706e-007 2.2603 21.606 7.4023 -13.8325 0.0752301 -29.3789 13.5163 -1.1332 -5.0146 25.2986 -13.0643 105.463 -0.0995 -28.05 -0.2431 3.74115 -0.21649 -74.5588 0.0679 -23.3996 -0.1402 10.4063 29.8587 5.2252 0.7932 -9.069 2.5189 1.81718e-005 5.28404e-008 -4.10649e-006 -0.8272 -3.3923 0.5977 -7.95139e-016 2.52576e-006 -1.59028e-015 -0.5649 -2.3158 0.4082 1.61749e-007 2.55451e-006 8.19266e-007 0.9159 -9.2044 0.2193 1.81718e-005 5.28404e-008 -4.10649e-006 0.0117 -4.1944 -0.0248 -0.012833 0.00233229 8.91005e-005 0.0071 -2.3249 -0.0142 2.10308e-022 2.52571e-006 -4.77083e-015 0.6113 -8.7231 -2.0637 1.81718e-005 5.28404e-008 -4.10649e-006 -0.1927 -3.8059 -0.2383 -0.0160542 0.00299943 0.000857836 -0.1091 -2.1688 -0.1362 7.00104e-006 9.31578e-007 2.57603e-006 -0.6151 -8.0947 -3.5641 1.81718e-005 5.28404e-008 -4.10649e-006 -0.4882 -2.341 -0.6462 -0.0125821 0.0031248 0.0028275 -0.3575 -1.7167 -0.4742 -6.9317e-006 5.05296e-007 -1.45581e-007 -1.42 -1.8761 1.4223 1.81718e-005 5.28404e-008 -4.10649e-006 -1.1471 -3.4929 2.6334 -7.95139e-016 2.52576e-006 -1.59028e-015 -0.823 -2.3 1.6571 1.61749e-007 2.55451e-006 8.19266e-007 -2.2603 21.606 7.4023 1.57471 -8.78079 -18.6699 -13.5187 -1.1334 -5.0155 -27.6857 26.901 -103.917 0.0994 -28.0499 -0.2431 -0.0865654 0.438493 73.3364 -0.0679 -23.3996 -0.1402 -45.7172 -9.32955 5.97592 -0.7932 -9.0691 2.5189 5.54908e-006 -1.32797e-006 -8.43084e-007 0.8272 -3.3923 0.5977 -3.18055e-015 -3.18055e-015 3.18055e-015 0.565 -2.3158 0.4082 1.03736e-006 -3.18863e-006 -1.08101e-006 -0.916 -9.2044 0.2193 5.54908e-006 -1.32797e-006 -8.43084e-007 -0.0117 -4.1944 -0.0248 0.0129499 0.00231772 -8.82049e-005 -0.0071 -2.3249 -0.0142 1.37655e-006 -3.26008e-006 -2.71437e-006 -0.6113 -8.7231 -2.0637 5.54908e-006 -1.32797e-006 -8.43084e-007 0.1927 -3.8059 -0.2383 0.0163242 0.00303658 -0.000873914 0.1091 -2.1688 -0.1362 0 0 -3.18055e-015 0.6151 -8.0947 -3.564 5.54908e-006 -1.32797e-006 -8.43084e-007 0.4882 -2.341 -0.6462 0.014577 0.00367822 -0.00327051 0.3574 -1.7166 -0.4742 6.36111e-015 3.18055e-015 -3.18055e-015 1.4199 -1.8761 1.4221 5.54908e-006 -1.32797e-006 -8.43084e-007 1.1472 -3.4929 2.6336 -3.18055e-015 -3.18055e-015 3.18055e-015 0.8229 -2.3 1.6571 1.03736e-006 -3.18863e-006 -1.08101e-006 -9.412 3.9771 -0.7758 -35.9712 -12.9778 46.7981 -0.7531 -40.938 -1.77636e-015 127.619 39.7001 -157.877 0 -40.1986 7.10543e-015 -15.1746 36.0455 62.6612 7.10543e-015 -4.4182 9.239 -7.83781e-007 6.63893e-007 1.25431e-006 9.4119 3.9773 -0.7758 37.9969 -13.2762 -47.498 0.7532 -40.9383 0 -125.69 40.3335 156.669 -8.88178e-016 -40.1986 7.10543e-015 17.6169 36.4966 -65.5262 7.10543e-015 -4.4182 9.239 -6.36111e-015 6.36111e-015 6.36111e-015 
